<svg xmlns="http://www.w3.org/2000/svg" width="64.018" height="57.616" viewBox="0 0 64.018 57.616"><defs><style>.a{fill:#009fe3;}</style></defs><g transform="translate(0 0)"><path class="a" d="M59.75,24H10.67A4.268,4.268,0,0,0,6.4,28.268V62.411H1.067A1.067,1.067,0,0,0,0,63.478a4.268,4.268,0,0,0,4.268,4.268H35.21v12.8a1.067,1.067,0,0,0,1.821.754l5.647-5.647L48.326,81.3a1.067,1.067,0,0,0,.754.313,1.053,1.053,0,0,0,.409-.081,1.067,1.067,0,0,0,.658-.986v-12.8h3.2a4.268,4.268,0,0,0,4.268-4.268V29.335h5.335a1.067,1.067,0,0,0,1.067-1.067A4.268,4.268,0,0,0,59.75,24Zm-4.268,4.268V62.411H51.214v2.134H55.2a2.134,2.134,0,0,1-1.847,1.067h-3.2V64.545H48.014V77.974l-4.58-4.58a1.067,1.067,0,0,0-1.509,0l-4.58,4.58V64.545H35.21v1.067H4.268a2.134,2.134,0,0,1-1.847-1.067H34.143V62.411H8.536V28.268a2.134,2.134,0,0,1,2.134-2.134H56.076A4.225,4.225,0,0,0,55.482,28.268ZM57.9,27.2a2.134,2.134,0,0,1,3.694,0Z" transform="translate(0 -24)"/></g><g transform="translate(32.477 20.287)"><path class="a" d="M263.772,189.213l-1.367-2.449,1.372-2.447a1.067,1.067,0,0,0-.406-1.453c-.026-.015-.052-.028-.079-.041l-2.547-1.166-.329-2.785a1.067,1.067,0,0,0-1.185-.934q-.041,0-.081.013l-2.751.545-1.9-2.06a1.1,1.1,0,0,0-1.554-.012l-.012.012-1.9,2.06-2.751-.545a1.067,1.067,0,0,0-1.254.84c-.005.027-.01.054-.013.081l-.329,2.785-2.547,1.168a1.067,1.067,0,0,0-.526,1.414q.019.041.041.079l1.372,2.444-1.372,2.447a1.067,1.067,0,0,0,.406,1.453c.026.015.052.028.08.041l2.547,1.168.329,2.787a1.067,1.067,0,0,0,1.185.934q.041,0,.081-.013l2.751-.545,1.9,2.06a1.067,1.067,0,0,0,1.508.059c.02-.019.04-.038.059-.059l1.9-2.06,2.751.545a1.052,1.052,0,0,0,.834-.184,1.067,1.067,0,0,0,.427-.737l.329-2.785,2.547-1.168a1.067,1.067,0,0,0,.526-1.414Q263.794,189.251,263.772,189.213Zm-3.52-1.928,1.1,1.959-2.04.936a1.067,1.067,0,0,0-.615.845l-.262,2.233-2.205-.436a1.052,1.052,0,0,0-.99.32l-1.524,1.652-1.524-1.65a1.067,1.067,0,0,0-.783-.342.963.963,0,0,0-.207.021l-2.205.436-.262-2.233a1.067,1.067,0,0,0-.615-.845l-2.04-.936,1.1-1.959a1.047,1.047,0,0,0,0-1.043v0l-1.1-1.959,2.04-.936a1.067,1.067,0,0,0,.615-.845l.262-2.233,2.205.436a1.057,1.057,0,0,0,.99-.32l1.524-1.655,1.524,1.65a1.051,1.051,0,0,0,.99.32l2.205-.436.262,2.233a1.067,1.067,0,0,0,.615.845l2.04.936-1.1,1.959A1.067,1.067,0,0,0,260.252,187.285Z" transform="translate(-243.512 -176.109)"/></g><g transform="translate(37.344 25.607)"><path class="a" d="M285.335,216a5.335,5.335,0,1,0,5.335,5.335A5.335,5.335,0,0,0,285.335,216Zm0,8.536a3.2,3.2,0,1,1,3.2-3.2A3.2,3.2,0,0,1,285.335,224.536Z" transform="translate(-280 -216)"/></g><g transform="translate(22.873 7.12)"><g transform="translate(0 0)"><rect class="a" width="18.287" height="1.662"/></g></g><g transform="translate(13.73 12.939)"><g transform="translate(0 0)"><rect class="a" width="36.573" height="2.494" transform="translate(0)"/></g></g><g transform="translate(13.73 16.264)"><g transform="translate(0 0)"><rect class="a" width="36.573" height="2.494" transform="translate(0)"/></g></g><g transform="translate(14.561 30.394)"><g transform="translate(0 0)"><rect class="a" width="13.299" height="2.494" transform="translate(0 0)"/></g></g></svg>