<svg xmlns="http://www.w3.org/2000/svg" width="57.982" height="55.676" viewBox="0 0 57.982 55.676"><defs><style>.a{fill:#009fe3;}</style></defs><g transform="translate(3.119 11.342)"><path class="a" d="M34.08,103.439h-.966a7.3,7.3,0,0,0-7.289,7.289v5.5a7.3,7.3,0,0,0,7.29,7.289h.966a7.3,7.3,0,0,0,7.289-7.289v-5.5A7.3,7.3,0,0,0,34.08,103.439Zm5.358,12.792a5.362,5.362,0,0,1-5.357,5.357h-.966a5.362,5.362,0,0,1-5.357-5.357v-5.5a5.362,5.362,0,0,1,5.357-5.357h.966a5.362,5.362,0,0,1,5.357,5.357Z" transform="translate(-25.824 -103.439)"/></g><g transform="translate(0 25.219)"><path class="a" d="M50.141,225.244H45.012a7.846,7.846,0,0,0-3.069.628,11.066,11.066,0,0,0-10.475-7.553H26.708a11.067,11.067,0,0,0-10.5,7.634,7.807,7.807,0,0,0-3.235-.707H7.841A7.851,7.851,0,0,0,0,233.086V247.81a.966.966,0,0,0,.966.966H57.016a.966.966,0,0,0,.966-.966V233.086A7.851,7.851,0,0,0,50.141,225.244Zm-40.7,21.6H6.765V234.935H4.832v11.909h-2.9V233.086a5.917,5.917,0,0,1,3.619-5.446l3.888,3.887ZM7.828,227.178h5.146l-.006,0c.027,0,.053.006.081.007L10.44,229.8Zm7.828,2.2v17.472H11.372V231.6L15.3,227.67c.159.069.314.146.468.229A11.047,11.047,0,0,0,15.655,229.374Zm12.466,17.469H22.468V229.406H20.535v17.437H17.588V229.374a9.133,9.133,0,0,1,6.317-8.674l4.216,5.823v20.32ZM26,220.29c.236-.018.472-.037.712-.037l4.76,0c.309,0,.614.016.915.046l-3.274,4.293Zm14.592,26.556H37.768v-17.44H35.836v17.437H30.054V226.537l4.4-5.771a9.126,9.126,0,0,1,6.132,8.608Zm5.991,0H42.52V229.374a11.078,11.078,0,0,0-.125-1.57c.1-.053.2-.11.3-.154l3.88,3.876v15.317Zm-1.612-19.667h5.224l-2.615,2.609Zm11.082,19.667h-2.9V234.578H51.217v12.265H48.512V231.6l3.946-3.946a5.917,5.917,0,0,1,3.592,5.435Z" transform="translate(0 -218.319)"/></g><g transform="translate(19.846 0)"><path class="a" d="M173.346,9.546a9.145,9.145,0,0,0-9.05,9.05v5.452a9.144,9.144,0,0,0,18.288,0V18.6A9.145,9.145,0,0,0,173.346,9.546Zm7.306,14.506a7.212,7.212,0,0,1-14.423,0V18.6a7.212,7.212,0,0,1,14.423,0Z" transform="translate(-164.296 -9.546)"/></g><g transform="translate(40.291 11.342)"><path class="a" d="M341.8,103.439h-.966a7.3,7.3,0,0,0-7.289,7.289v5.5a7.3,7.3,0,0,0,7.29,7.289h.966a7.3,7.3,0,0,0,7.289-7.289v-5.5A7.3,7.3,0,0,0,341.8,103.439Zm5.358,12.792a5.363,5.363,0,0,1-5.357,5.357h-.966a5.362,5.362,0,0,1-5.357-5.357v-5.5a5.362,5.362,0,0,1,5.357-5.357h.966a5.362,5.362,0,0,1,5.357,5.357Z" transform="translate(-333.544 -103.439)"/></g></svg>