<svg xmlns="http://www.w3.org/2000/svg" width="207.307" height="51.363" viewBox="0 0 207.307 51.363"><defs><style>.a{fill:#232b76;}.b{fill:#9fdaf9;}.c{fill:#ef003e;}</style></defs><g transform="translate(58.12 11.115)"><path class="a" d="M203.8,83.011l-7.551-18.8h5.293l4.9,13.077,4.943-13.077h5.293l-7.55,18.8Z" transform="translate(-196.249 -56.311)"/><path class="a" d="M271.162,40.452a2.938,2.938,0,0,1,5.877,0,2.938,2.938,0,1,1-5.877,0Zm.467,23.781v-18.8h4.943v18.8Z" transform="translate(-248.976 -37.533)"/><path class="a" d="M300.467,79.448l2.141-3.581a10.657,10.657,0,0,0,6.5,2.608c2.141,0,3.153-.817,3.153-1.985,0-3.074-11.131-.545-11.131-7.94,0-3.153,2.724-5.916,7.706-5.916a11.976,11.976,0,0,1,7.551,2.569l-1.985,3.5a8.106,8.106,0,0,0-5.566-2.18c-1.79,0-2.958.779-2.958,1.829,0,2.764,11.17.429,11.17,8.018,0,3.464-2.958,5.994-8.173,5.994A12.654,12.654,0,0,1,300.467,79.448Z" transform="translate(-269.603 -55.2)"/><path class="a" d="M364.695,66.091V56.322h-3.114V52h3.114V46.864h4.943V52h3.814v4.32h-3.814v8.446c0,1.206.623,2.1,1.713,2.1a2.486,2.486,0,0,0,1.713-.584l1.051,3.775a6.1,6.1,0,0,1-4.126,1.207C366.524,71.267,364.695,69.477,364.695,66.091Z" transform="translate(-312.617 -44.101)"/><path class="a" d="M413.1,81.9V63.1h4.943v2.53a8.245,8.245,0,0,1,5.994-3V67.46a6.384,6.384,0,0,0-5.994,2.024V81.9Z" transform="translate(-348.879 -55.2)"/><path class="a" d="M456.338,72.481a9.591,9.591,0,0,1,9.73-9.847c5.644,0,9.419,4.2,9.419,10.314v1.168H461.514c.35,2.3,2.218,4.2,5.41,4.2a7.86,7.86,0,0,0,4.982-1.83l2.219,3.27a11.718,11.718,0,0,1-7.745,2.608C460.658,82.367,456.338,78.514,456.338,72.481Zm9.73-5.8a4.335,4.335,0,0,0-4.593,4.008h9.263A4.308,4.308,0,0,0,466.068,66.682Z" transform="translate(-379.312 -55.2)"/><path class="a" d="M541.6,81.9V79.915a7.671,7.671,0,0,1-5.955,2.452c-3,0-6.5-2.024-6.5-6.227,0-4.437,3.5-6.072,6.5-6.072a7.677,7.677,0,0,1,5.955,2.3V69.99c0-1.907-1.635-3.152-4.126-3.152a7.9,7.9,0,0,0-5.41,2.218l-1.946-3.464a12.137,12.137,0,0,1,8.213-2.958c4.32,0,8.251,1.713,8.251,7.123V81.9Zm0-4.515V75.05a4.97,4.97,0,0,0-3.97-1.674c-1.946,0-3.542,1.051-3.542,2.842s1.6,2.8,3.542,2.8A4.945,4.945,0,0,0,541.6,77.385Z" transform="translate(-430.559 -55.2)"/><path class="a" d="M627.77,81.9V70.029c0-1.751-.778-3-2.8-3a4.99,4.99,0,0,0-3.892,2.179V81.9h-4.982V70.029c0-1.751-.779-3-2.8-3a5.123,5.123,0,0,0-3.893,2.179V81.9h-4.943V63.1H609.4v2.413a8.424,8.424,0,0,1,6.15-2.88c2.763,0,4.554,1.284,5.216,3.386a8.052,8.052,0,0,1,6.46-3.386c3.464,0,5.527,1.829,5.527,5.683V81.9Z" transform="translate(-483.565 -55.2)"/></g><path class="b" d="M25.681,51.363A25.681,25.681,0,1,1,51.363,25.681,25.71,25.71,0,0,1,25.681,51.363Zm0-42.83A17.149,17.149,0,1,0,42.831,25.681,17.168,17.168,0,0,0,25.681,8.532Z"/><g transform="translate(28.241 7.764)"><circle class="c" cx="7.679" cy="7.679" r="7.679"/></g></svg>