<svg xmlns="http://www.w3.org/2000/svg" xmlns:xlink="http://www.w3.org/1999/xlink" width="1920" height="721" viewBox="0 0 1920 721"><defs><style>.a{fill:url(#a);}.b,.j{fill:none;}.c{clip-path:url(#c);}.d{opacity:0.28;}.e{clip-path:url(#d);}.f,.h,.i{fill:#fff;}.g{fill:#5417bb;}.h{opacity:0.29;}.h,.i{mix-blend-mode:overlay;}.h,.i,.u{isolation:isolate;}.i{opacity:0.58;}.j{stroke:#fff;stroke-miterlimit:10;}.k{fill:url(#f);}.l{fill:url(#g);}.m{fill:url(#h);}.n{fill:url(#i);}.o{fill:url(#k);}.p{fill:url(#l);}.q{fill:url(#m);}.r{fill:url(#n);}.s{fill:url(#o);}.t{clip-path:url(#r);}.u{fill:#536be6;mix-blend-mode:color-dodge;}</style><linearGradient id="a" x1="0.007" y1="-0.003" x2="0.995" y2="1.005" gradientUnits="objectBoundingBox"><stop offset="0" stop-color="#68c5ff"/><stop offset="1" stop-color="#3239ff"/></linearGradient><clipPath id="c"><rect class="a" width="1920" height="721" transform="translate(0 100)"/></clipPath><clipPath id="d"><circle class="b" cx="91.03" cy="91.03" r="91.03" transform="translate(0 176.944) rotate(-76.386)"/></clipPath><linearGradient id="f" x1="0.598" y1="-4.967" x2="0.364" y2="-3.585" gradientUnits="objectBoundingBox"><stop offset="0" stop-color="#ffc431"/><stop offset="1" stop-color="#ff8300"/></linearGradient><linearGradient id="g" x1="0.754" y1="-0.742" x2="0.275" y2="0.849" xlink:href="#a"/><linearGradient id="h" x1="1.027" y1="-0.298" x2="0.024" y2="0.797" gradientUnits="objectBoundingBox"><stop offset="0" stop-color="#ff0198"/><stop offset="1" stop-color="#5c00c4"/></linearGradient><linearGradient id="i" x1="0.966" y1="0.231" x2="-0.053" y2="1.279" gradientUnits="objectBoundingBox"><stop offset="0" stop-color="#e001ff"/><stop offset="1" stop-color="#3239ff"/></linearGradient><linearGradient id="k" x1="1.211" y1="-0.101" x2="-0.064" y2="1.411" xlink:href="#a"/><linearGradient id="l" x1="0.283" y1="0.966" x2="1.619" y2="-0.51" gradientUnits="objectBoundingBox"><stop offset="0" stop-color="#ff2f7f"/><stop offset="0.158" stop-color="#ff3779"/><stop offset="0.411" stop-color="#ff4e69"/><stop offset="0.725" stop-color="#ff7450"/><stop offset="1" stop-color="#ff9b36"/></linearGradient><linearGradient id="m" x1="1.211" y1="-0.101" x2="-0.064" y2="1.411" xlink:href="#l"/><linearGradient id="n" x1="0.622" y1="1.45" x2="0.431" y2="-0.656" xlink:href="#l"/><linearGradient id="o" x1="0.622" y1="1.45" x2="0.431" y2="-0.656" gradientUnits="objectBoundingBox"><stop offset="0" stop-color="#ffd531"/><stop offset="1" stop-color="#ff8300"/></linearGradient><clipPath id="r"><circle class="b" cx="75.113" cy="75.113" r="75.113" transform="translate(0 146.04) rotate(-76.445)"/></clipPath></defs><g transform="translate(0 -100)"><g transform="translate(0 100)"><rect class="a" width="1920" height="721"/></g><g class="c"><g transform="translate(2049.951 1045.58) rotate(-180)"><g class="d" transform="translate(183.257 80.276)"><g transform="translate(0 0)"><g class="e"><g transform="translate(-57.508 -175.78)"><rect class="f" width="3.584" height="441.532" transform="translate(312.205 0) rotate(44.998)"/><rect class="f" width="3.584" height="441.532" transform="translate(312.205 17.203) rotate(44.998)"/><rect class="f" width="3.584" height="441.532" transform="translate(312.21 34.41) rotate(45)"/><rect class="f" width="3.584" height="441.532" transform="translate(312.21 51.613) rotate(45)"/><rect class="f" width="3.584" height="441.532" transform="translate(312.21 68.815) rotate(45)"/><rect class="f" width="3.584" height="441.532" transform="translate(312.205 86.013) rotate(44.998)"/><rect class="f" width="3.584" height="441.532" transform="translate(312.205 103.215) rotate(44.998)"/><rect class="f" width="3.584" height="441.532" transform="translate(312.205 120.418) rotate(44.998)"/><rect class="f" width="3.584" height="441.532" transform="translate(312.205 137.62) rotate(44.998)"/><rect class="f" width="3.584" height="441.532" transform="translate(312.205 154.823) rotate(44.998)"/><rect class="f" width="3.584" height="441.532" transform="translate(312.205 172.025) rotate(44.998)"/><rect class="f" width="3.584" height="441.532" transform="translate(312.21 189.233) rotate(45)"/><rect class="f" width="3.584" height="441.532" transform="translate(312.21 206.436) rotate(45)"/><rect class="f" width="3.584" height="441.532" transform="translate(312.205 223.633) rotate(44.998)"/><rect class="f" width="3.584" height="441.532" transform="translate(312.205 240.836) rotate(44.998)"/><rect class="f" width="3.584" height="441.532" transform="translate(312.205 258.038) rotate(44.998)"/><rect class="f" width="3.584" height="441.532" transform="translate(312.205 275.241) rotate(44.998)"/></g></g></g></g><g class="d" transform="translate(855.781 348.311)"><g transform="translate(0 0)"><g class="e" transform="translate(0)"><g transform="translate(-57.508 -175.78)"><rect class="f" width="3.584" height="441.532" transform="translate(312.205 0) rotate(44.998)"/><rect class="f" width="3.584" height="441.532" transform="translate(312.205 17.203) rotate(44.998)"/><rect class="f" width="3.584" height="441.532" transform="translate(312.21 34.41) rotate(45)"/><rect class="f" width="3.584" height="441.532" transform="translate(312.21 51.613) rotate(45)"/><rect class="f" width="3.584" height="441.532" transform="translate(312.21 68.815) rotate(45)"/><rect class="f" width="3.584" height="441.532" transform="translate(312.205 86.013) rotate(44.998)"/><rect class="f" width="3.584" height="441.532" transform="translate(312.205 103.215) rotate(44.998)"/><rect class="f" width="3.584" height="441.532" transform="translate(312.205 120.418) rotate(44.998)"/><rect class="f" width="3.584" height="441.532" transform="translate(312.205 137.62) rotate(44.998)"/><rect class="f" width="3.584" height="441.532" transform="translate(312.205 154.823) rotate(44.998)"/><rect class="f" width="3.584" height="441.532" transform="translate(312.205 172.025) rotate(44.998)"/><rect class="f" width="3.584" height="441.532" transform="translate(312.21 189.233) rotate(45)"/><rect class="f" width="3.584" height="441.532" transform="translate(312.21 206.436) rotate(45)"/><rect class="f" width="3.584" height="441.532" transform="translate(312.205 223.633) rotate(44.998)"/><rect class="f" width="3.584" height="441.532" transform="translate(312.205 240.836) rotate(44.998)"/><rect class="f" width="3.584" height="441.532" transform="translate(312.205 258.038) rotate(44.998)"/><rect class="f" width="3.584" height="441.532" transform="translate(312.205 275.241) rotate(44.998)"/></g></g></g></g><rect class="g" width="16.289" height="16.289" transform="translate(602.959 551.056)"/><rect class="h" width="16.289" height="16.289" transform="translate(59.579 203.403)"/><rect class="i" width="29.427" height="29.427" transform="translate(964.328 161.952)"/><rect class="i" width="13.329" height="13.329" transform="translate(1002.702 194.911)"/><g transform="translate(840.423 201.135)"><g transform="translate(74.162 38.921)"><path class="f" d="M585.887,181.6a2.98,2.98,0,1,1,2.983,2.968A2.976,2.976,0,0,1,585.887,181.6Z" transform="translate(-585.887 -178.63)"/></g><g transform="translate(48.757 38.921)"><path class="f" d="M570.249,181.6a2.974,2.974,0,1,1,2.975,2.968A2.97,2.97,0,0,1,570.249,181.6Z" transform="translate(-570.249 -178.63)"/></g><g transform="translate(74.162 19.918)"><path class="f" d="M585.887,169.908a2.98,2.98,0,1,1,2.983,2.974A2.981,2.981,0,0,1,585.887,169.908Z" transform="translate(-585.887 -166.933)"/></g><g transform="translate(48.757 19.918)"><path class="f" d="M570.249,169.908a2.974,2.974,0,1,1,2.975,2.974A2.974,2.974,0,0,1,570.249,169.908Z" transform="translate(-570.249 -166.933)"/></g><g transform="translate(74.162)"><path class="f" d="M585.887,157.647a2.98,2.98,0,1,1,2.983,2.974A2.981,2.981,0,0,1,585.887,157.647Z" transform="translate(-585.887 -154.672)"/></g><g transform="translate(48.757)"><path class="f" d="M570.249,157.647a2.974,2.974,0,1,1,2.975,2.974A2.974,2.974,0,0,1,570.249,157.647Z" transform="translate(-570.249 -154.672)"/></g><g transform="translate(25.408 38.921)"><path class="f" d="M555.876,181.6a2.975,2.975,0,1,1,2.976,2.968A2.97,2.97,0,0,1,555.876,181.6Z" transform="translate(-555.876 -178.63)"/></g><g transform="translate(0 38.921)"><path class="f" d="M540.236,181.6a2.976,2.976,0,1,1,2.975,2.968A2.97,2.97,0,0,1,540.236,181.6Z" transform="translate(-540.236 -178.63)"/></g><g transform="translate(25.408 19.918)"><path class="f" d="M555.876,169.908a2.975,2.975,0,1,1,2.976,2.974A2.974,2.974,0,0,1,555.876,169.908Z" transform="translate(-555.876 -166.933)"/></g><g transform="translate(0 19.918)"><path class="f" d="M540.236,169.908a2.976,2.976,0,1,1,2.975,2.974A2.974,2.974,0,0,1,540.236,169.908Z" transform="translate(-540.236 -166.933)"/></g><g transform="translate(25.408)"><path class="f" d="M555.876,157.647a2.975,2.975,0,1,1,2.976,2.974A2.974,2.974,0,0,1,555.876,157.647Z" transform="translate(-555.876 -154.672)"/></g><path class="f" d="M540.236,157.647a2.976,2.976,0,1,1,2.975,2.974A2.974,2.974,0,0,1,540.236,157.647Z" transform="translate(-540.236 -154.672)"/></g><path class="j" d="M700.491,191.213H637.134a10.559,10.559,0,0,1-10.56-10.559h0a10.559,10.559,0,0,1,10.56-10.559h63.357a10.559,10.559,0,0,1,10.559,10.559h0A10.559,10.559,0,0,1,700.491,191.213Z" transform="translate(354.109 56.094)"/><g transform="translate(489.829 538.084)"><circle class="f" cx="5.686" cy="5.686" r="5.686"/><circle class="f" cx="5.686" cy="5.686" r="5.686" transform="translate(31.408)"/><circle class="f" cx="5.686" cy="5.686" r="5.686" transform="translate(62.815)"/></g><g transform="translate(134.548 432.696)"><circle class="f" cx="3.86" cy="3.86" r="3.86" transform="translate(0 0)"/><path class="f" d="M126.571,301.072a3.86,3.86,0,1,1-3.86-3.86A3.86,3.86,0,0,1,126.571,301.072Z" transform="translate(-97.531 -297.212)"/><path class="f" d="M139.695,301.072a3.86,3.86,0,1,1-3.86-3.86A3.86,3.86,0,0,1,139.695,301.072Z" transform="translate(-89.334 -297.212)"/></g><g transform="translate(70.994 113.006)"><path class="h" d="M561.689,145.61,445.5,346.864a25.782,25.782,0,0,0,22.329,38.674H700.211a25.782,25.782,0,0,0,22.328-38.674L606.346,145.61A25.783,25.783,0,0,0,561.689,145.61Z" transform="translate(167.843 -80.254)"/><path class="h" d="M293.075,480.491,409.268,279.238a25.784,25.784,0,0,0-22.329-38.675H154.553a25.784,25.784,0,0,0-22.329,38.675L248.417,480.491A25.783,25.783,0,0,0,293.075,480.491Z" transform="translate(-27.806 -12.901)"/><path class="h" d="M589.225,333.2l-40,69.285a8.876,8.876,0,0,0,7.687,13.313h80a8.876,8.876,0,0,0,7.687-13.313l-40-69.285A8.877,8.877,0,0,0,589.225,333.2Z" transform="translate(234.055 42.18)"/><path class="k" d="M307.3,444.9,459.681,180.958c13.014-22.544-3.254-50.721-29.284-50.721H125.628c-26.03,0-42.3,28.178-29.284,50.721L248.728,444.9C261.744,467.438,294.28,467.438,307.3,444.9Z" transform="translate(-50.894 -81.804)"/><path class="l" d="M660.239,390.766,752.41,231.119A20.453,20.453,0,0,0,734.7,200.44H550.356a20.453,20.453,0,0,0-17.712,30.679l92.171,159.646A20.453,20.453,0,0,0,660.239,390.766Z" transform="translate(222.72 -37.96)"/><path class="m" d="M588.491,482.114l116.2-201.252a25.784,25.784,0,0,0-22.329-38.675H449.97a25.783,25.783,0,0,0-22.329,38.675L543.834,482.114A25.782,25.782,0,0,0,588.491,482.114Z" transform="translate(156.692 -11.888)"/><path class="n" d="M431.07,117.225,279.639,379.513c-12.935,22.4,3.233,50.4,29.1,50.4H611.6c25.867,0,42.035-28,29.1-50.4L489.272,117.225C476.338,94.823,444,94.823,431.07,117.225Z" transform="translate(63.598 -100.423)"/><path class="n" d="M409.4,257.189,338.924,379.26a15.638,15.638,0,0,0,13.544,23.458H493.423a15.638,15.638,0,0,0,13.542-23.458L436.488,257.189A15.639,15.639,0,0,0,409.4,257.189Z" transform="translate(102.143 -7.401)"/><path class="o" d="M254.392,349.664,192.669,456.57a13.7,13.7,0,0,0,11.861,20.544H327.975a13.7,13.7,0,0,0,11.861-20.544L278.113,349.664A13.7,13.7,0,0,0,254.392,349.664Z" transform="translate(10.966 50.96)"/><path class="p" d="M484.213,163.646l-47.622,82.481a10.568,10.568,0,0,0,9.151,15.851h95.242a10.567,10.567,0,0,0,9.151-15.851l-47.62-82.481A10.567,10.567,0,0,0,484.213,163.646Z" transform="translate(163.569 -64.238)"/><path class="q" d="M156.477,323.318l-24.763,42.891a5.5,5.5,0,0,0,4.758,8.241H186a5.494,5.494,0,0,0,4.758-8.241l-24.763-42.891A5.494,5.494,0,0,0,156.477,323.318Z" transform="translate(-26.408 37.066)"/><path class="r" d="M356.384,443.472,464.006,257.067a23.882,23.882,0,0,0-20.682-35.823H228.082A23.882,23.882,0,0,0,207.4,257.067L315.022,443.472A23.88,23.88,0,0,0,356.384,443.472Z" transform="translate(19.305 -24.967)"/><path class="s" d="M132.613,279.424l46.668-80.832a10.356,10.356,0,0,0-8.969-15.532H76.977a10.356,10.356,0,0,0-8.969,15.532l46.668,80.832A10.356,10.356,0,0,0,132.613,279.424Z" transform="translate(-66.606 -48.814)"/><path class="s" d="M689.359,332.988l46.668-80.83a10.356,10.356,0,0,0-8.967-15.534H633.724a10.357,10.357,0,0,0-8.969,15.534l46.668,80.83A10.355,10.355,0,0,0,689.359,332.988Z" transform="translate(281.102 -15.362)"/><path class="s" d="M461.592,157.444,485.4,116.2a5.285,5.285,0,0,0-4.576-7.926h-47.62a5.285,5.285,0,0,0-4.576,7.926l23.811,41.24A5.283,5.283,0,0,0,461.592,157.444Z" transform="translate(159.044 -95.519)"/></g><rect class="j" width="84.476" height="21.119" rx="6.5" transform="translate(167.646 388.634)"/><g class="d" transform="translate(348.732 216.511)"><g transform="translate(0 0)"><g class="t"><g transform="translate(-47.509 -145.101)"><rect class="f" width="2.957" height="364.325" transform="translate(257.612 0) rotate(44.998)"/><rect class="f" width="2.957" height="364.325" transform="translate(257.607 14.19) rotate(44.996)"/><rect class="f" width="2.957" height="364.326" transform="translate(257.612 28.389) rotate(44.998)"/><rect class="f" width="2.957" height="364.325" transform="translate(257.617 42.588) rotate(45)"/><rect class="f" width="2.957" height="364.325" transform="translate(257.612 56.778) rotate(44.998)"/><rect class="f" width="2.957" height="364.326" transform="translate(257.607 70.968) rotate(44.996)"/><rect class="f" width="2.957" height="364.325" transform="translate(257.612 85.167) rotate(44.998)"/><rect class="f" width="2.957" height="364.325" transform="translate(257.607 99.357) rotate(44.996)"/><rect class="f" width="2.957" height="364.325" transform="translate(257.607 113.551) rotate(44.996)"/><rect class="f" width="2.957" height="364.325" transform="translate(257.612 127.751) rotate(44.998)"/><rect class="f" width="2.957" height="364.325" transform="translate(257.607 141.94) rotate(44.996)"/><rect class="f" width="2.957" height="364.326" transform="translate(257.612 156.139) rotate(44.998)"/><rect class="f" width="2.957" height="364.325" transform="translate(257.617 170.339) rotate(45)"/><rect class="f" width="2.957" height="364.325" transform="translate(257.607 184.524) rotate(44.996)"/><rect class="f" width="2.957" height="364.326" transform="translate(257.607 198.718) rotate(44.996)"/><rect class="f" width="2.957" height="364.325" transform="translate(257.612 212.918) rotate(44.998)"/><rect class="f" width="2.957" height="364.325" transform="translate(257.607 227.107) rotate(44.996)"/></g></g></g></g><path class="u" d="M89.259,205.61A22.743,22.743,0,1,0,112,228.353,22.743,22.743,0,0,0,89.259,205.61Zm0,33.823a11.08,11.08,0,1,1,11.081-11.079A11.08,11.08,0,0,1,89.259,239.433Z" transform="translate(4.332 78.275)"/><path class="u" d="M688.819,257.769a22.743,22.743,0,1,0,22.743,22.743A22.743,22.743,0,0,0,688.819,257.769Zm0,33.823A11.08,11.08,0,1,1,699.9,280.513,11.078,11.078,0,0,1,688.819,291.592Z" transform="translate(378.778 110.851)"/></g></g></g></svg>