<svg xmlns="http://www.w3.org/2000/svg" width="142.525" height="35.312" viewBox="0 0 142.525 35.312"><defs><style>.a{fill:#232b76;}.b{fill:#9fdaf9;}.c{fill:#ef003e;}</style></defs><g transform="translate(39.958 7.642)"><path class="a" d="M201.44,77.136l-5.191-12.924h3.639L203.26,73.2l3.4-8.991H210.3l-5.191,12.924Z" transform="translate(-196.249 -58.78)"/><path class="a" d="M271.162,39.54a2.02,2.02,0,0,1,4.04,0,2.02,2.02,0,1,1-4.04,0Zm.321,16.349V42.965h3.4V55.889Z" transform="translate(-255.909 -37.533)"/><path class="a" d="M300.467,74.194l1.472-2.462a7.327,7.327,0,0,0,4.469,1.793c1.472,0,2.167-.562,2.167-1.365,0-2.114-7.653-.374-7.653-5.459,0-2.167,1.873-4.067,5.3-4.067a8.234,8.234,0,0,1,5.191,1.766l-1.365,2.408a5.573,5.573,0,0,0-3.827-1.5c-1.231,0-2.033.535-2.033,1.258,0,1.9,7.679.295,7.679,5.512,0,2.382-2.033,4.121-5.619,4.121A8.7,8.7,0,0,1,300.467,74.194Z" transform="translate(-279.247 -57.523)"/><path class="a" d="M363.722,60.082V53.366h-2.141V50.4h2.141V46.864h3.4V50.4h2.622v2.97H367.12v5.807c0,.829.428,1.445,1.177,1.445a1.709,1.709,0,0,0,1.177-.4l.722,2.6a4.2,4.2,0,0,1-2.836.83C364.979,63.641,363.722,62.41,363.722,60.082Z" transform="translate(-327.918 -44.964)"/><path class="a" d="M413.1,75.88V62.955h3.4v1.739a5.668,5.668,0,0,1,4.121-2.061v3.318a4.389,4.389,0,0,0-4.121,1.391V75.88Z" transform="translate(-368.948 -57.523)"/><path class="a" d="M456.338,69.4a6.594,6.594,0,0,1,6.69-6.77c3.88,0,6.475,2.89,6.475,7.091v.8H459.9a3.464,3.464,0,0,0,3.719,2.89,5.4,5.4,0,0,0,3.425-1.258l1.525,2.248a8.056,8.056,0,0,1-5.325,1.793A6.545,6.545,0,0,1,456.338,69.4Zm6.69-3.987a2.981,2.981,0,0,0-3.157,2.756h6.368A2.962,2.962,0,0,0,463.028,65.417Z" transform="translate(-403.382 -57.523)"/><path class="a" d="M537.711,75.88V74.515a5.274,5.274,0,0,1-4.094,1.686,4.284,4.284,0,0,1-4.469-4.281c0-3.051,2.408-4.174,4.469-4.174a5.278,5.278,0,0,1,4.094,1.579V67.691c0-1.311-1.124-2.167-2.837-2.167a5.433,5.433,0,0,0-3.72,1.525l-1.338-2.381a8.344,8.344,0,0,1,5.646-2.034c2.97,0,5.673,1.178,5.673,4.9V75.88Zm0-3.1V71.17a3.417,3.417,0,0,0-2.73-1.151c-1.338,0-2.435.723-2.435,1.954s1.1,1.927,2.435,1.927A3.4,3.4,0,0,0,537.711,72.775Z" transform="translate(-461.367 -57.523)"/><path class="a" d="M620.484,75.88V67.718c0-1.2-.535-2.06-1.927-2.06a3.431,3.431,0,0,0-2.676,1.5V75.88h-3.425V67.718c0-1.2-.535-2.06-1.927-2.06a3.522,3.522,0,0,0-2.676,1.5V75.88h-3.4V62.955h3.4v1.659a5.791,5.791,0,0,1,4.228-1.98,3.41,3.41,0,0,1,3.586,2.328,5.536,5.536,0,0,1,4.442-2.328c2.382,0,3.8,1.258,3.8,3.907V75.88Z" transform="translate(-521.342 -57.523)"/></g><path class="b" d="M17.656,35.312A17.656,17.656,0,1,1,35.312,17.656,17.676,17.676,0,0,1,17.656,35.312Zm0-29.446a11.79,11.79,0,1,0,11.79,11.79A11.8,11.8,0,0,0,17.656,5.866Z"/><g transform="translate(19.416 5.338)"><circle class="c" cx="5.279" cy="5.279" r="5.279"/></g></svg>