<svg xmlns="http://www.w3.org/2000/svg" width="57.981" height="57.979" viewBox="0 0 57.981 57.979"><defs><style>.a{fill:#009fe3;}</style></defs><g transform="translate(0 0)"><path class="a" d="M55.046,16.3c3.225-6.612,3.879-11.967,1.24-14.606C53.695-.9,48.505-.453,41.65,2.926a28.941,28.941,0,0,0-25.328,0C9.47-.452,4.277-.9,1.682,1.692c-2.64,2.641-1.986,8,1.248,14.621A28.938,28.938,0,0,0,2.916,41.66C-.466,48.512-.91,53.7,1.682,56.294A6.342,6.342,0,0,0,6.34,57.931c2.706,0,6.114-1.012,9.944-2.881a28.935,28.935,0,0,0,25.407,0c3.827,1.866,7.237,2.878,9.938,2.877a6.344,6.344,0,0,0,4.658-1.636c2.59-2.59,2.145-7.775-1.227-14.622A28.937,28.937,0,0,0,55.046,16.3ZM54.92,3.058c1.8,1.8,1.419,5.817-1.006,11.157A29.209,29.209,0,0,0,43.756,4.068C49.1,1.645,53.122,1.266,54.92,3.058ZM41.662,32.1l-.647-1.238a4.006,4.006,0,0,0-2.89-2.084l-4.433-.719a3.974,3.974,0,0,0-2.744.551l-1.01.629a9.53,9.53,0,0,0-4.518,8.137v.833a5.063,5.063,0,0,1-.651,2.468q-1.925-1.755-3.821-3.648-1.923-1.925-3.652-3.822V20.722a2.044,2.044,0,0,1,.562-1.411l4.812-5.071a7.752,7.752,0,0,1,2.12-1.581l6.709-3.4a7.8,7.8,0,0,1,3.508-.839l11.563.037a27.245,27.245,0,0,1,6.318,7.871,74.655,74.655,0,0,1-8.4,12.458,3.971,3.971,0,0,0-.969,1.168Q42.616,31.03,41.662,32.1Zm1.356,1.384v1.208l-.4-.76C42.755,33.785,42.885,33.639,43.018,33.486Zm-9.912,7.278-1.5-1.186a1.4,1.4,0,0,0-2.161.559l-1.16,2.791a1.369,1.369,0,0,0-.064.773c-.668-.559-1.335-1.127-2-1.713a7,7,0,0,0,1.127-3.775V37.38a7.609,7.609,0,0,1,3.607-6.5l1.01-.629a2.051,2.051,0,0,1,1.414-.287l4.433.721A2.059,2.059,0,0,1,39.3,31.759l.979,1.87q-1.577,1.712-3.26,3.4Q35.079,38.969,33.106,40.765Zm-.547,8.741a12.111,12.111,0,0,0-2.528-.277H26.023c-.085,0-.17.015-.255.017,1.062-.774,2.134-1.581,3.216-2.439v0Q30.79,48.244,32.559,49.506Zm-2.3-6.277.7-1.7.676.541q-.676.594-1.353,1.171Zm-6.735-1.077c-.108.088-.215.177-.33.256l-3.154-3.563q1.737,1.721,3.482,3.307ZM53.915,18.467A26.78,26.78,0,0,1,55,21.565l-3.4,5.352a2.04,2.04,0,0,1-1.73.95H47.679A74.517,74.517,0,0,0,53.915,18.467ZM21.106,5.869l1-3.037A27.02,27.02,0,0,1,44.022,6.514l-9.013-.03a9.748,9.748,0,0,0-4.384,1.048l-6.709,3.4a9.673,9.673,0,0,0-2.649,1.974l-4.812,5.076a3.967,3.967,0,0,0-1.091,2.738V31.04A77.907,77.907,0,0,1,5.075,16.362c.374-.7.78-1.389,1.212-2.054l4.895-.676a1.418,1.418,0,0,0,.4-.115l4.071-1.874A9.152,9.152,0,0,0,19.4,8.474L20.932,6.22A1.421,1.421,0,0,0,21.106,5.869ZM19.842,3.537l-.547,1.654L17.8,7.387a7.209,7.209,0,0,1-2.953,2.5l-4,1.836-3,.416A27.167,27.167,0,0,1,19.842,3.537ZM3.048,3.058c1.8-1.793,5.823-1.414,11.17,1.01A29.2,29.2,0,0,0,4.047,14.248C1.631,8.891,1.264,4.841,3.048,3.058ZM1.932,29c0-.852.044-1.694.122-2.527l2.5.045a2.349,2.349,0,0,1,1.916.991L7.2,28.532a2.337,2.337,0,0,1,.43,1.353.965.965,0,0,0,.026.223l1.335,5.586a6.95,6.95,0,0,1,.115,2.63L7.963,46.008A26.926,26.926,0,0,1,1.932,29ZM3.048,54.93c-1.793-1.8-1.413-5.819,1.01-11.162A29.2,29.2,0,0,0,14.2,53.924C8.864,56.349,4.845,56.725,3.048,54.93Zm6.591-7.044,1.369-9.277a8.84,8.84,0,0,0-.147-3.36l-1.3-5.48a4.257,4.257,0,0,0-.783-2.35l-.722-1.027a4.279,4.279,0,0,0-3.479-1.809L2.3,24.541a26.877,26.877,0,0,1,1.755-6.059A85.351,85.351,0,0,0,15.369,33.959a6.987,6.987,0,0,0,1.754,4.506l4.923,5.561a1.4,1.4,0,0,0,1.762.275l.124-.073a6.865,6.865,0,0,0,1.043-.781q1.244,1.093,2.478,2.112A72.115,72.115,0,0,1,16.316,52.9,27.18,27.18,0,0,1,9.639,47.886ZM28.99,56.059A26.909,26.909,0,0,1,18.5,53.941l2.39-1.4a10.185,10.185,0,0,1,5.132-1.39h4.007a10.147,10.147,0,0,1,3.351.568l5.825,2.029c.1.057.2.118.306.173A26.9,26.9,0,0,1,28.99,56.059Zm10.933-4.1a76.157,76.157,0,0,1-9.409-6.4l.265-.218a1.385,1.385,0,0,0,.608-.259l2.2-1.745a1.382,1.382,0,0,0,.5-.855q2.152-1.943,4.3-4.084,1.47-1.47,2.845-2.946l1.081,2.066a1.4,1.4,0,0,0,2.637-.647v-5.02a2.036,2.036,0,0,1,.155-.773c.261-.312.517-.623.773-.935A2.03,2.03,0,0,1,47,29.8h2.87a3.962,3.962,0,0,0,3.361-1.846l2.383-3.75A26.994,26.994,0,0,1,42.036,52.7Zm15,2.971c-1.8,1.795-5.813,1.419-11.15-1A29.2,29.2,0,0,0,53.917,43.786C56.333,49.116,56.713,53.135,54.92,54.93Z" transform="translate(0 -0.008)"/></g><g transform="translate(39.55 39.843)"><path class="a" d="M336.788,332.87h0l-2.447-2.588a1.4,1.4,0,0,0-1.016-.438h-4.145A1.4,1.4,0,0,0,327.8,331l-.364,2.061a1.4,1.4,0,0,0,1.112,1.618l3.9.762a2.205,2.205,0,0,0,.263.024h3.349a1.4,1.4,0,0,0,.724-2.594Zm-4.025.661-3.333-.65.193-1.1h3.466l1.659,1.754Z" transform="translate(-327.415 -329.844)"/></g></svg>